<mxfile host="65bd71144e">
    <diagram name="Page-1" id="c9db0220-8083-56f3-ca83-edcdcd058819">
        <mxGraphModel dx="2475" dy="1353" grid="1" gridSize="10" guides="1" tooltips="1" connect="1" arrows="1" fold="1" page="1" pageScale="1.5" pageWidth="1169" pageHeight="827" background="#ffffff" math="0" shadow="0">
            <root>
                <mxCell id="0" style=";html=1;"/>
                <mxCell id="1" style=";html=1;" parent="0"/>
                <mxCell id="3d76a8aef4d5c911-1" value="" style="html=1;shadow=0;dashed=0;shape=mxgraph.bootstrap.rect;fillColor=#222222;strokeColor=none;whiteSpace=wrap;rounded=0;fontSize=12;fontColor=#000000;align=center;" parent="1" vertex="1">
                    <mxGeometry x="80" y="70" width="1600" height="90" as="geometry"/>
                </mxCell>
                <mxCell id="3d76a8aef4d5c911-7" value="Zoeken" style="html=1;shadow=0;dashed=0;fillColor=none;strokeColor=none;shape=mxgraph.bootstrap.rect;fontColor=#999999;whiteSpace=wrap;fontSize=24;" parent="3d76a8aef4d5c911-1" vertex="1">
                    <mxGeometry x="480.0139130434782" width="160" height="90" as="geometry"/>
                </mxCell>
                <mxCell id="3d76a8aef4d5c911-8" value="Logout" style="html=1;shadow=0;dashed=0;fillColor=none;strokeColor=none;shape=mxgraph.bootstrap.rect;fontColor=#999999;whiteSpace=wrap;fontSize=24;" parent="3d76a8aef4d5c911-1" vertex="1">
                    <mxGeometry x="1460" width="140" height="90" as="geometry"/>
                </mxCell>
                <mxCell id="H9CyvaDkC_5dpCcxhKHN-1" value="Contact" style="html=1;shadow=0;dashed=0;fillColor=none;strokeColor=none;shape=mxgraph.bootstrap.rect;fontColor=#999999;whiteSpace=wrap;fontSize=24;" parent="3d76a8aef4d5c911-1" vertex="1">
                    <mxGeometry x="340.0069565217391" width="140" height="90" as="geometry"/>
                </mxCell>
                <mxCell id="H9CyvaDkC_5dpCcxhKHN-4" value="About" style="html=1;shadow=0;dashed=0;fillColor=none;strokeColor=none;shape=mxgraph.bootstrap.rect;fontColor=#999999;whiteSpace=wrap;fontSize=24;" parent="3d76a8aef4d5c911-1" vertex="1">
                    <mxGeometry x="179.99304347826086" width="140" height="90" as="geometry"/>
                </mxCell>
                <mxCell id="2" value="Home" style="html=1;shadow=0;dashed=0;fillColor=none;strokeColor=none;shape=mxgraph.bootstrap.rect;fontColor=#999999;whiteSpace=wrap;fontSize=24;" parent="3d76a8aef4d5c911-1" vertex="1">
                    <mxGeometry x="20.00304347826085" width="140" height="90" as="geometry"/>
                </mxCell>
                <mxCell id="3d76a8aef4d5c911-17" value="WF14.0" style="html=1;shadow=0;dashed=0;shape=mxgraph.bootstrap.rect;strokeColor=none;fillColor=none;fontColor=#000000;align=left;spacingLeft=5;whiteSpace=wrap;rounded=0;fontStyle=1;fontSize=30;" parent="1" vertex="1">
                    <mxGeometry y="10" width="200" height="20" as="geometry"/>
                </mxCell>
                <mxCell id="H9CyvaDkC_5dpCcxhKHN-5" value="" style="html=1;shadow=0;dashed=0;shape=mxgraph.bootstrap.rect;fillColor=#222222;strokeColor=none;whiteSpace=wrap;rounded=0;fontSize=12;fontColor=#000000;align=center;" parent="1" vertex="1">
                    <mxGeometry x="80" y="1260" width="1600" height="90" as="geometry"/>
                </mxCell>
                <mxCell id="H9CyvaDkC_5dpCcxhKHN-9" value="Footer tekst" style="html=1;shadow=0;dashed=0;fillColor=none;strokeColor=none;shape=mxgraph.bootstrap.rect;fontColor=#999999;whiteSpace=wrap;fontSize=24;" parent="H9CyvaDkC_5dpCcxhKHN-5" vertex="1">
                    <mxGeometry x="50" width="340" height="90" as="geometry"/>
                </mxCell>
                <mxCell id="4" value="&lt;font style=&quot;font-size: 34px;&quot;&gt;Voornaam&lt;br style=&quot;font-size: 34px;&quot;&gt;&lt;/font&gt;" style="html=1;shadow=0;dashed=0;shape=mxgraph.bootstrap.rrect;rSize=5;fontSize=34;strokeColor=#dddddd;align=left;spacing=10;verticalAlign=middle;whiteSpace=wrap;rounded=0;" parent="1" vertex="1">
                    <mxGeometry x="80" y="270" width="1000" height="44" as="geometry"/>
                </mxCell>
                <mxCell id="9" value="&lt;font&gt;&lt;font style=&quot;font-size: 30px&quot;&gt;Auteur wijzigen:&lt;/font&gt;&lt;br&gt;&lt;/font&gt;" style="html=1;shadow=0;dashed=0;shape=mxgraph.bootstrap.rrect;rSize=5;fontSize=12;strokeColor=#dddddd;align=left;spacing=10;verticalAlign=middle;whiteSpace=wrap;rounded=0;fillColor=#000000;" parent="1" vertex="1">
                    <mxGeometry x="80" y="190" width="683" height="50" as="geometry"/>
                </mxCell>
                <mxCell id="10" value="&lt;font&gt;&lt;font style=&quot;font-size: 30px&quot;&gt;button: Wijzigingen opslaan&lt;/font&gt;&lt;br&gt;&lt;/font&gt;" style="html=1;shadow=0;dashed=0;shape=mxgraph.bootstrap.rrect;rSize=5;fontSize=12;align=left;spacing=10;verticalAlign=middle;whiteSpace=wrap;rounded=0;" parent="1" vertex="1">
                    <mxGeometry x="80" y="1150" width="1600" height="50" as="geometry"/>
                </mxCell>
                <mxCell id="16" value="&lt;font style=&quot;font-size: 34px&quot;&gt;Tussenvoegsel&lt;br style=&quot;font-size: 34px&quot;&gt;&lt;/font&gt;" style="html=1;shadow=0;dashed=0;shape=mxgraph.bootstrap.rrect;rSize=5;fontSize=34;strokeColor=#dddddd;align=left;spacing=10;verticalAlign=middle;whiteSpace=wrap;rounded=0;" vertex="1" parent="1">
                    <mxGeometry x="80" y="332" width="1000" height="44" as="geometry"/>
                </mxCell>
                <mxCell id="17" value="&lt;font style=&quot;font-size: 34px&quot;&gt;Achternaam&lt;br style=&quot;font-size: 34px&quot;&gt;&lt;/font&gt;" style="html=1;shadow=0;dashed=0;shape=mxgraph.bootstrap.rrect;rSize=5;fontSize=34;strokeColor=#dddddd;align=left;spacing=10;verticalAlign=middle;whiteSpace=wrap;rounded=0;" vertex="1" parent="1">
                    <mxGeometry x="80" y="394" width="1000" height="44" as="geometry"/>
                </mxCell>
                <mxCell id="18" value="&lt;font style=&quot;font-size: 34px&quot;&gt;Foto auteur, indien niet aanwezig placeholder&lt;br style=&quot;font-size: 34px&quot;&gt;&lt;/font&gt;" style="html=1;shadow=0;dashed=0;shape=mxgraph.bootstrap.rrect;rSize=5;fontSize=34;strokeColor=#dddddd;align=left;spacing=10;verticalAlign=middle;whiteSpace=wrap;rounded=0;" vertex="1" parent="1">
                    <mxGeometry x="1420" y="270" width="260" height="310" as="geometry"/>
                </mxCell>
                <mxCell id="19" value="button upload nieuwe foto" style="html=1;shadow=0;dashed=0;shape=mxgraph.bootstrap.rrect;rSize=5;fontSize=34;strokeColor=#dddddd;align=left;spacing=10;verticalAlign=middle;whiteSpace=wrap;rounded=0;" vertex="1" parent="1">
                    <mxGeometry x="1420" y="600" width="260" height="90" as="geometry"/>
                </mxCell>
                <mxCell id="20" value="&lt;font style=&quot;font-size: 34px&quot;&gt;Omchrijving auteur&lt;br style=&quot;font-size: 34px&quot;&gt;&lt;/font&gt;" style="html=1;shadow=0;dashed=0;shape=mxgraph.bootstrap.rrect;rSize=5;fontSize=34;strokeColor=#dddddd;align=left;spacing=10;verticalAlign=middle;whiteSpace=wrap;rounded=0;" vertex="1" parent="1">
                    <mxGeometry x="80" y="820" width="1000" height="310" as="geometry"/>
                </mxCell>
                <mxCell id="21" value="&lt;font style=&quot;font-size: 34px&quot;&gt;Geboortedatum&lt;br style=&quot;font-size: 34px&quot;&gt;&lt;/font&gt;" style="html=1;shadow=0;dashed=0;shape=mxgraph.bootstrap.rrect;rSize=5;fontSize=34;strokeColor=#dddddd;align=left;spacing=10;verticalAlign=middle;whiteSpace=wrap;rounded=0;" vertex="1" parent="1">
                    <mxGeometry x="80" y="456" width="1000" height="44" as="geometry"/>
                </mxCell>
                <mxCell id="22" value="&lt;font style=&quot;font-size: 34px&quot;&gt;Email adres (ter info, niet te wijzigen)&lt;br style=&quot;font-size: 34px&quot;&gt;&lt;/font&gt;" style="html=1;shadow=0;dashed=0;shape=mxgraph.bootstrap.rrect;rSize=5;fontSize=34;strokeColor=#dddddd;align=left;spacing=10;verticalAlign=middle;whiteSpace=wrap;rounded=0;" vertex="1" parent="1">
                    <mxGeometry x="80" y="518" width="1000" height="44" as="geometry"/>
                </mxCell>
                <mxCell id="23" value="&lt;font style=&quot;font-size: 34px&quot;&gt;Telefoonnummer&lt;br style=&quot;font-size: 34px&quot;&gt;&lt;/font&gt;" style="html=1;shadow=0;dashed=0;shape=mxgraph.bootstrap.rrect;rSize=5;fontSize=34;strokeColor=#dddddd;align=left;spacing=10;verticalAlign=middle;whiteSpace=wrap;rounded=0;" vertex="1" parent="1">
                    <mxGeometry x="80" y="580" width="1000" height="44" as="geometry"/>
                </mxCell>
                <mxCell id="24" value="&lt;font style=&quot;font-size: 34px&quot;&gt;Oud wachtwoord&lt;br style=&quot;font-size: 34px&quot;&gt;&lt;/font&gt;" style="html=1;shadow=0;dashed=0;shape=mxgraph.bootstrap.rrect;rSize=5;fontSize=34;strokeColor=#dddddd;align=left;spacing=10;verticalAlign=middle;whiteSpace=wrap;rounded=0;" vertex="1" parent="1">
                    <mxGeometry x="80" y="640" width="1000" height="44" as="geometry"/>
                </mxCell>
                <mxCell id="25" value="&lt;font style=&quot;font-size: 34px&quot;&gt;Nieuw wachtwoord&lt;br style=&quot;font-size: 34px&quot;&gt;&lt;/font&gt;" style="html=1;shadow=0;dashed=0;shape=mxgraph.bootstrap.rrect;rSize=5;fontSize=34;strokeColor=#dddddd;align=left;spacing=10;verticalAlign=middle;whiteSpace=wrap;rounded=0;" vertex="1" parent="1">
                    <mxGeometry x="80" y="700" width="1000" height="44" as="geometry"/>
                </mxCell>
                <mxCell id="26" value="&lt;font style=&quot;font-size: 34px&quot;&gt;Herhaal nieuw wachtwoord&lt;br style=&quot;font-size: 34px&quot;&gt;&lt;/font&gt;" style="html=1;shadow=0;dashed=0;shape=mxgraph.bootstrap.rrect;rSize=5;fontSize=34;strokeColor=#dddddd;align=left;spacing=10;verticalAlign=middle;whiteSpace=wrap;rounded=0;" vertex="1" parent="1">
                    <mxGeometry x="80" y="760" width="1000" height="44" as="geometry"/>
                </mxCell>
            </root>
        </mxGraphModel>
    </diagram>
</mxfile>